<?xml version="1.0" standalone="no"?>
<!DOCTYPE svg PUBLIC "-//W3C//DTD SVG 20010904//EN"
 "http://www.w3.org/TR/2001/REC-SVG-20010904/DTD/svg10.dtd">
<svg version="1.0" xmlns="http://www.w3.org/2000/svg"
 width="24.000000pt" height="24.000000pt" viewBox="0 0 24.000000 24.000000"
 preserveAspectRatio="xMidYMid meet">

<g transform="translate(0.000000,24.000000) scale(0.100000,-0.100000)"
fill="#000000" stroke="none">
<path d="M48 188 c7 -7 12 -33 12 -58 0 -54 13 -70 57 -70 39 0 49 15 55 88 5
50 4 52 -20 52 -20 0 -23 -3 -14 -12 16 -16 15 -93 -2 -107 -7 -6 -21 -8 -31
-5 -14 6 -16 17 -13 65 l4 59 -30 0 c-23 0 -27 -3 -18 -12z"/>
</g>
</svg>
